# xmcd CD database file
# Copyright (C) 1996 Ti Kan
#
# Track frame offsets:
#  183
#  15813
#  33210
#  62985
#  80188
#  99688
#  116923
#  133613
#  163033
#  177135
#  201300
#  215035
#
# Disc length: 3151 seconds
#
# Revision: 1
# Processed by: cddbd v1.4b41PL1 Copyright (c) Steve Scherf et al.
# Submitted via: CDWizzard Release:4.15
#
DISCID=aa0c4d0c
DTITLE=Grant and Forsyth - Country Love Songs vol.2
DYEAR=1900
DGENRE=
TTITLE0=He's Out Of My Life
TTITLE1=Don't Stay
TTITLE2=Medley
TTITLE3=Stay
TTITLE4=It Ain't Easy
TTITLE5=I Am ' I said
TTITLE6=Without You
TTITLE7=Medley
TTITLE8=Talking In Your Sleep
TTITLE9=Sweet Sixteen
TTITLE10=Turning Over New Leaves
TTITLE11=Soul On Fire
EXTD=
EXTT0=
EXTT1=
EXTT2=
EXTT3=
EXTT4=
EXTT5=
EXTT6=
EXTT7=
EXTT8=
EXTT9=
EXTT10=
EXTT11=
PLAYORDER=
